<?xml version="1.0" encoding="UTF-8"?>
<svg version="1.1" xmlns="http://www.w3.org/2000/svg" width="216" height="114">
<path d="M0 0 C33.99 0 67.98 0 103 0 C104.44207941 2.88415883 104.09394887 5.41721528 104.0625 8.625 C104.05347656 9.81351563 104.04445313 11.00203125 104.03515625 12.2265625 C104.02355469 13.14179688 104.01195313 14.05703125 104 15 C106.97 15 109.94 15 113 15 C112.98839844 14.00097656 112.97679688 13.00195312 112.96484375 11.97265625 C112.95582031 10.68230469 112.94679688 9.39195313 112.9375 8.0625 C112.92589844 6.77472656 112.91429688 5.48695312 112.90234375 4.16015625 C113 1 113 1 114 0 C124.1796694 -1.51511721 134.59945799 -1.87288173 144.875 -2.25 C145.62769543 -2.27827629 146.38039085 -2.30655258 147.15589523 -2.33568573 C165.3171592 -2.93892625 180.53849355 -2.74514566 194.69366455 10.03515625 C208.5523695 23.74145223 216.30798517 34.10876902 216.73461914 53.52661133 C216.78601207 55.36499611 216.86073077 57.20289582 216.96020508 59.03930664 C217.85679369 75.91258505 217.85679369 75.91258505 212.18582153 82.41162109 C210.06962825 84.53334482 207.86156308 86.52795423 205.60586548 88.49978638 C203.50961744 90.45811969 201.80832654 92.61497418 200.06462097 94.885849 C186.06163537 113.09917164 186.06163537 113.09917164 175.48095703 115.07958984 C165.31549088 116.32101548 155.10929413 115.25206854 145 114 C145 105.75 145 97.5 145 89 C155 88 155 88 158.63916016 88.01757812 C167.0808138 88.05281986 171.58916382 86.1029485 177.70214844 80.30737305 C178.58418945 79.38093994 179.46623047 78.45450684 180.375 77.5 C181.29313477 76.55616455 182.21126953 75.6123291 183.15722656 74.63989258 C188.17481103 69.10798243 191.94466042 64.38788382 191.75 56.6875 C191.18626123 51.17783438 189.64422378 46.74111904 185.37109375 43.109375 C183.28947603 41.25752398 182.0357837 39.71039097 180.47265625 37.453125 C176.28086665 31.85819938 172.50528394 27.7115846 165.42333984 26.27392578 C156.65749497 25.24914359 147.79355028 25.60389413 139 26 C139 34.91 139 43.82 139 53 C136.57108818 54.21445591 134.99280557 54.12924198 132.28125 54.1328125 C131.34925781 54.13410156 130.41726562 54.13539062 129.45703125 54.13671875 C128.48121094 54.13285156 127.50539063 54.12898438 126.5 54.125 C125.03626953 54.13080078 125.03626953 54.13080078 123.54296875 54.13671875 C122.14498047 54.13478516 122.14498047 54.13478516 120.71875 54.1328125 C119.86216797 54.13168457 119.00558594 54.13055664 118.12304688 54.12939453 C116 54 116 54 114 53 C112.91305101 49.20146704 112.88371316 45.53652241 112.90234375 41.60546875 C112.90717773 39.80239258 112.90717773 39.80239258 112.91210938 37.96289062 C112.92467773 36.09407227 112.92467773 36.09407227 112.9375 34.1875 C112.94201172 32.92228516 112.94652344 31.65707031 112.95117188 30.35351562 C112.96293749 27.2356289 112.97937728 24.11783867 113 21 C110.03 21 107.06 21 104 21 C103.505 23.475 103.505 23.475 103 26 C77.59 26 52.18 26 26 26 C26.495 34.415 26.495 34.415 27 43 C29.26149902 42.98952637 31.52299805 42.97905273 33.85302734 42.96826172 C41.31291013 42.93516849 48.7727961 42.91304896 56.23273277 42.89637566 C60.7570826 42.88592449 65.28135741 42.8717411 69.80566406 42.84912109 C74.16931524 42.82744007 78.53289413 42.81544142 82.896595 42.81024551 C84.56402347 42.80654121 86.23144785 42.79930793 87.89884567 42.78853989 C90.22871295 42.7740878 92.55827894 42.77201939 94.88818359 42.77294922 C95.58229843 42.76575867 96.27641327 42.75856812 96.99156189 42.75115967 C101.77189568 42.77189568 101.77189568 42.77189568 104 45 C104.24723816 47.81532288 104.24723816 47.81532288 104.24291992 51.45336914 C104.24481827 52.1152977 104.24671661 52.77722626 104.24867249 53.45921326 C104.25238302 55.651314 104.24167337 57.84308486 104.23046875 60.03515625 C104.22927711 61.55447857 104.22882375 63.07380163 104.2290802 64.59312439 C104.22751492 67.778357 104.21922117 70.96347728 104.20581055 74.14868164 C104.18880618 78.2402171 104.18499658 82.33162919 104.18575573 86.42319584 C104.18548439 89.56035041 104.18000919 92.69747779 104.17275429 95.83462334 C104.16956295 97.3437727 104.16759913 98.85292516 104.16686058 100.36207771 C104.16470272 102.46678086 104.15597109 104.57135068 104.14526367 106.67602539 C104.14145187 107.87578506 104.13764008 109.07554474 104.13371277 110.31166077 C104 113 104 113 103 114 C101.65927183 114.09527037 100.31357497 114.1218877 98.96946716 114.12025452 C98.10143463 114.12162918 97.2334021 114.12300385 96.33906555 114.12442017 C95.37953476 114.12082489 94.42000397 114.11722961 93.43139648 114.11352539 C92.42663269 114.11367142 91.4218689 114.11381744 90.38665771 114.1139679 C87.04811483 114.1132683 83.70962695 114.10547374 80.37109375 114.09765625 C78.06323782 114.09579224 75.75538149 114.09436826 73.44752502 114.09336853 C67.35982174 114.08954204 61.27214214 114.07971065 55.18444824 114.06866455 C48.97778646 114.05845323 42.77112087 114.05387151 36.56445312 114.04882812 C24.37628998 114.0380885 12.18815066 114.02049064 0 114 C0 105.75 0 97.5 0 89 C2.93708001 87.53146 5.89343705 87.86980451 9.11181641 87.88647461 C10.20953117 87.88625557 10.20953117 87.88625557 11.329422 87.8860321 C13.75349876 87.88672997 16.17749912 87.89451646 18.6015625 87.90234375 C20.28022215 87.90420838 21.95888234 87.90563207 23.63754272 87.90663147 C28.05987038 87.91045312 32.48216528 87.92028041 36.90447998 87.93133545 C41.41548215 87.94155714 45.92648959 87.94613072 50.4375 87.95117188 C59.29168338 87.96190298 68.14583385 87.97949694 77 88 C77 82.06 77 76.12 77 70 C73.55445679 70.00785522 73.55445679 70.00785522 70.03930664 70.01586914 C62.46764364 70.03240555 54.89597987 70.04347143 47.32430363 70.05181217 C42.7315736 70.05704082 38.138862 70.06413812 33.54614258 70.07543945 C29.11766312 70.086269 24.68920144 70.09227698 20.26070976 70.09487724 C18.56734372 70.09673137 16.87397871 70.10035175 15.18062019 70.10573006 C12.81708768 70.1129414 10.45362955 70.1139909 8.09008789 70.11352539 C7.38302704 70.11712067 6.67596619 70.12071594 5.94747925 70.12442017 C1.11405216 70.11405216 1.11405216 70.11405216 0 69 C-0.09425595 66.85256451 -0.11742648 64.70198974 -0.11352539 62.55249023 C-0.11364593 61.86842889 -0.11376646 61.18436754 -0.11389065 60.47957706 C-0.11314171 58.25588337 -0.10551441 56.03227254 -0.09765625 53.80859375 C-0.09618677 52.43949423 -0.0951661 51.07039414 -0.09460449 49.70129395 C-0.08935232 44.61335409 -0.07539122 39.52542624 -0.0625 34.4375 C-0.041875 23.073125 -0.02125 11.70875 0 0 Z " fill="#F36A00" transform="translate(0,0)"/>
<path d="M0 0 C1.02996094 -0.00128906 2.05992188 -0.00257812 3.12109375 -0.00390625 C4.74724609 0.00189453 4.74724609 0.00189453 6.40625 0.0078125 C7.49035156 0.00394531 8.57445312 0.00007813 9.69140625 -0.00390625 C10.72136719 -0.00261719 11.75132812 -0.00132813 12.8125 0 C14.24045898 0.00169189 14.24045898 0.00169189 15.69726562 0.00341797 C17.90625 0.1328125 17.90625 0.1328125 18.90625 1.1328125 C18.99978163 2.82083235 19.02369791 4.51276457 19.01977539 6.20336914 C19.01969986 7.28441422 19.01962433 8.36545929 19.01954651 9.47926331 C19.01438522 10.6552861 19.00922394 11.8313089 19.00390625 13.04296875 C19.0024913 14.24014023 19.00107635 15.43731171 18.99961853 16.67076111 C18.99399979 20.51230316 18.98144411 24.35378793 18.96875 28.1953125 C18.96373741 30.79231687 18.95917409 33.38932215 18.95507812 35.98632812 C18.94487313 42.36852966 18.92530136 48.7506066 18.90625 55.1328125 C10.65625 55.1328125 2.40625 55.1328125 -6.09375 55.1328125 C-6.11665196 47.46065645 -6.1365812 39.78861803 -6.14868164 32.11645508 C-6.15372377 29.50414631 -6.16055725 26.89184039 -6.16918945 24.27954102 C-6.18126036 20.53400982 -6.18697935 16.78851578 -6.19140625 13.04296875 C-6.19656754 11.86694595 -6.20172882 10.69092316 -6.20704651 9.47926331 C-6.20715981 7.85769569 -6.20715981 7.85769569 -6.20727539 6.20336914 C-6.209496 5.24628555 -6.21171661 4.28920197 -6.21400452 3.30311584 C-5.98313053 -0.86360157 -3.61642721 0.00428487 0 0 Z " fill="#EF6700" transform="translate(120.09375,58.8671875)"/>
<path d="M0 0 C33.99 0 67.98 0 103 0 C103 0.33 103 0.66 103 1 C69.34 1 35.68 1 1 1 C1.33 3.64 1.66 6.28 2 9 C2.07933909 11.13753472 2.11805717 13.27701379 2.11352539 15.41601562 C2.11344986 16.61665649 2.11337433 17.81729736 2.11329651 19.05432129 C2.10813522 20.32545776 2.10297394 21.59659424 2.09765625 22.90625 C2.09578772 24.24003038 2.09436587 25.57381146 2.09336853 26.90759277 C2.0895776 30.39276067 2.07977715 33.8778859 2.06866455 37.36303711 C2.05837623 40.92951887 2.05385511 44.49600763 2.04882812 48.0625 C2.0381513 55.04168403 2.02111676 62.02083996 2 69 C2.67886765 68.83734146 3.35773529 68.67468292 4.05717468 68.50709534 C7.45194233 67.92212319 10.6393686 67.88035412 14.08520508 67.88647461 C14.77843872 67.88632858 15.47167236 67.88618256 16.18591309 67.8860321 C18.46381829 67.88672549 20.74164043 67.89449085 23.01953125 67.90234375 C24.60422216 67.90420997 26.18891365 67.90563291 27.77360535 67.90663147 C31.9344951 67.91044057 36.09534968 67.92025708 40.25622559 67.93133545 C44.50609868 67.94158418 48.75597748 67.9461365 53.00585938 67.95117188 C61.33725569 67.96188084 69.66862346 67.97893789 78 68 C79.23315333 71.69945999 79.18407267 75.14767558 79.1875 79 C79.19974609 79.72445312 79.21199219 80.44890625 79.22460938 81.1953125 C79.23515833 85.00700298 79.1642464 86.7536304 77 90 C74.79260254 90.3473053 74.79260254 90.3473053 72.00976562 90.30883789 C70.96687378 90.30215591 69.92398193 90.29547394 68.8494873 90.28858948 C67.71321899 90.26683151 66.57695068 90.24507355 65.40625 90.22265625 C63.64335632 90.20917397 63.64335632 90.20917397 61.84484863 90.19541931 C58.06293825 90.16530368 54.28165207 90.11564416 50.5 90.0625 C34.80565336 89.85935346 19.56591709 89.83525937 4 92 C3.67 97.94 3.34 103.88 3 110 C4.32 110.66 5.64 111.32 7 112 C5.515 112.495 5.515 112.495 4 113 C3.34 112.67 2.68 112.34 2 112 C1.01 112.99 1.01 112.99 0 114 C0 105.75 0 97.5 0 89 C2.93708001 87.53146 5.89343705 87.86980451 9.11181641 87.88647461 C10.20953117 87.88625557 10.20953117 87.88625557 11.329422 87.8860321 C13.75349876 87.88672997 16.17749912 87.89451646 18.6015625 87.90234375 C20.28022215 87.90420838 21.95888234 87.90563207 23.63754272 87.90663147 C28.05987038 87.91045312 32.48216528 87.92028041 36.90447998 87.93133545 C41.41548215 87.94155714 45.92648959 87.94613072 50.4375 87.95117188 C59.29168338 87.96190298 68.14583385 87.97949694 77 88 C77 82.06 77 76.12 77 70 C73.55445679 70.00785522 73.55445679 70.00785522 70.03930664 70.01586914 C62.46764364 70.03240555 54.89597987 70.04347143 47.32430363 70.05181217 C42.7315736 70.05704082 38.138862 70.06413812 33.54614258 70.07543945 C29.11766312 70.086269 24.68920144 70.09227698 20.26070976 70.09487724 C18.56734372 70.09673137 16.87397871 70.10035175 15.18062019 70.10573006 C12.81708768 70.1129414 10.45362955 70.1139909 8.09008789 70.11352539 C7.38302704 70.11712067 6.67596619 70.12071594 5.94747925 70.12442017 C1.11405216 70.11405216 1.11405216 70.11405216 0 69 C-0.09425595 66.85256451 -0.11742648 64.70198974 -0.11352539 62.55249023 C-0.11364593 61.86842889 -0.11376646 61.18436754 -0.11389065 60.47957706 C-0.11314171 58.25588337 -0.10551441 56.03227254 -0.09765625 53.80859375 C-0.09618677 52.43949423 -0.0951661 51.07039414 -0.09460449 49.70129395 C-0.08935232 44.61335409 -0.07539122 39.52542624 -0.0625 34.4375 C-0.041875 23.073125 -0.02125 11.70875 0 0 Z " fill="#792200" transform="translate(0,0)"/>
<path d="M0 0 C0.99 0.33 1.98 0.66 3 1 C5.40620214 1.08693632 7.81491395 1.10964243 10.22265625 1.09765625 C10.93285416 1.0942775 11.64305206 1.09089874 12.37477112 1.0874176 C19.73482544 1.03202148 27.08371178 0.73060733 34.4375 0.4375 C45.64619775 0.01543805 56.73817359 0.00547126 67.94506836 0.68139648 C73.10561019 0.97721239 77.90882366 0.89339687 83.03295898 0.21337891 C85.60308735 -0.06542117 88.00304639 0.11306222 90.5625 0.4375 C91.40941406 0.53933594 92.25632812 0.64117187 93.12890625 0.74609375 C94.05509766 0.87177734 94.05509766 0.87177734 95 1 C95 1.66 95 2.32 95 3 C63.32 3 31.64 3 -1 3 C-0.67 2.01 -0.34 1.02 0 0 Z " fill="#FE8900" transform="translate(2,111)"/>
<path d="M0 0 C17.82 0 35.64 0 54 0 C54 0.33 54 0.66 54 1 C52.80511963 1.02505615 51.61023926 1.0501123 50.37915039 1.07592773 C45.9117712 1.17067491 41.44452335 1.27072645 36.97729492 1.37231445 C35.05024302 1.41541043 33.12315913 1.45710127 31.19604492 1.49731445 C28.41315096 1.55563642 25.63041431 1.61914646 22.84765625 1.68359375 C21.99728287 1.70030624 21.14690948 1.71701874 20.27076721 1.73423767 C14.79348432 1.86743625 9.4381845 2.32770354 4 3 C2.94595055 6.98196457 3.15901344 9.98195309 4 14 C2.68 14.33 1.36 14.66 0 15 C0 10.05 0 5.1 0 0 Z " fill="#FE8C00" transform="translate(115,1)"/>
<path d="M0 0 C7.26 0 14.52 0 22 0 C21.67 0.99 21.34 1.98 21 3 C18.20826945 3.02690104 15.41679652 3.04679053 12.625 3.0625 C11.43390625 3.07506836 11.43390625 3.07506836 10.21875 3.08789062 C4.2265625 3.11328125 4.2265625 3.11328125 2 2 C2.309375 3.1446875 2.309375 3.1446875 2.625 4.3125 C3 7 3 7 1 10 C1.66 10 2.32 10 3 10 C3 10.66 3 11.32 3 12 C2.34 12 1.68 12 1 12 C0.67 12.99 0.34 13.98 0 15 C0 10.05 0 5.1 0 0 Z " fill="#FE8700" transform="translate(115,60)"/>
<path d="M0 0 C0.99 0 1.98 0 3 0 C3 8.25 3 16.5 3 25 C2.01 25 1.02 25 0 25 C-0.19572967 21.95866211 -0.38183916 18.91723937 -0.5625 15.875 C-0.61857422 15.0190625 -0.67464844 14.163125 -0.73242188 13.28125 C-0.99798352 8.67818141 -1.00515346 4.54180454 0 0 Z " fill="#C35500" transform="translate(136,89)"/>
<path d="M0 0 C2 1 2 1 3.25 3.625 C4.1577403 7.70983133 3.40008964 10.11086212 2 14 C6.29 14.66 10.58 15.32 15 16 C15 16.33 15 16.66 15 17 C10.05 17.33 5.1 17.66 0 18 C0 12.06 0 6.12 0 0 Z " fill="#FE8300" transform="translate(115,35)"/>
<path d="M0 0 C0.99 0 1.98 0 3 0 C4.04085588 1.64146179 5.03340066 3.31374276 6 5 C7.51663081 6.64760066 9.08091699 8.25248462 10.6875 9.8125 C11.49574219 10.60269531 12.30398437 11.39289062 13.13671875 12.20703125 C13.75160156 12.79871094 14.36648437 13.39039063 15 14 C14.01 15.485 14.01 15.485 13 17 C10.82078094 14.92854452 8.6570782 12.84429422 6.5 10.75 C5.87996094 10.16347656 5.25992188 9.57695313 4.62109375 8.97265625 C4.03457031 8.39902344 3.44804687 7.82539063 2.84375 7.234375 C2.29912109 6.71069336 1.75449219 6.18701172 1.19335938 5.64746094 C0 4 0 4 0 0 Z " fill="#CA7700" transform="translate(170,24)"/>
<path d="M0 0 C0.33 0 0.66 0 1 0 C1.33 8.58 1.66 17.16 2 26 C1.34 26 0.68 26 0 26 C0 25.34 0 24.68 0 24 C-0.99 23.67 -1.98 23.34 -3 23 C-2.649375 22.505 -2.29875 22.01 -1.9375 21.5 C-0.78742569 18.43313518 -1.26290772 16.14216262 -1.77734375 12.9609375 C-2.05794961 10.48963677 -1.55051875 8.40851955 -1 6 C-1.33 5.01 -1.66 4.02 -2 3 C-1.34 2.01 -0.68 1.02 0 0 Z " fill="#FD8000" transform="translate(101,88)"/>
<path d="M0 0 C7.59 0 15.18 0 23 0 C23 4.62 23 9.24 23 14 C22.34 14 21.68 14 21 14 C20.505 9.05 20.505 9.05 20 4 C20.66 4 21.32 4 22 4 C22 3.01 22 2.02 22 1 C14.74 1 7.48 1 0 1 C0 0.67 0 0.34 0 0 Z " fill="#AA4500" transform="translate(115,59)"/>
<path d="M0 0 C1.24265625 0.05220703 2.4853125 0.10441406 3.765625 0.15820312 C6.80241301 0.28668262 9.83876798 0.42158458 12.875 0.5625 C12.875 0.8925 12.875 1.2225 12.875 1.5625 C11.50214844 1.65337891 11.50214844 1.65337891 10.1015625 1.74609375 C8.91304687 1.82988281 7.72453125 1.91367188 6.5 2 C4.72496094 2.12181641 4.72496094 2.12181641 2.9140625 2.24609375 C-0.04018901 2.37334936 -0.04018901 2.37334936 -2.125 3.5625 C-2.69347656 3.418125 -3.26195313 3.27375 -3.84765625 3.125 C-7.8138325 2.14536127 -11.87104965 2.54968053 -15.93359375 2.625 C-18.81567202 2.56855783 -21.33012508 2.23118036 -24.125 1.5625 C-24.125 1.2325 -24.125 0.9025 -24.125 0.5625 C-16.02688461 -0.5587955 -8.15054871 -0.37960264 0 0 Z " fill="#FC8C00" transform="translate(36.125,89.4375)"/>
<path d="M0 0 C0.66 0 1.32 0 2 0 C2 5.94 2 11.88 2 18 C1.01 18 0.02 18 -1 18 C-0.505 9.09 -0.505 9.09 0 0 Z " fill="#E5A500" transform="translate(24,27)"/>
<path d="M0 0 C0.33 0 0.66 0 1 0 C1 1.65 1 3.3 1 5 C6.28 5.33 11.56 5.66 17 6 C17 6.66 17 7.32 17 8 C11.39 8 5.78 8 0 8 C0 5.36 0 2.72 0 0 Z " fill="#FF8000" transform="translate(115,106)"/>
<path d="M0 0 C0.66 0 1.32 0 2 0 C2.05383848 2.45862401 2.09359038 4.9160755 2.125 7.375 C2.14175781 8.07367188 2.15851563 8.77234375 2.17578125 9.4921875 C2.19344267 11.32897486 2.10303261 13.16601963 2 15 C1.34 15.66 0.68 16.32 0 17 C-0.89316269 11.06390334 -0.97040422 5.93024803 0 0 Z " fill="#FF8800" transform="translate(137,74)"/>
<path d="M0 0 C4.13621084 3.3810038 7.81316569 6.66590534 11 11 C6.1334614 10.58286812 4.20769467 8.54534674 1 5 C0.401875 4.401875 -0.19625 3.80375 -0.8125 3.1875 C-1.204375 2.795625 -1.59625 2.40375 -2 2 C-1.34 2 -0.68 2 0 2 C0 1.34 0 0.68 0 0 Z " fill="#C25B00" transform="translate(180,1)"/>
<path d="M0 0 C-1.47721422 3.45201639 -3.43794001 5.64961936 -6.125 8.25 C-6.84945312 8.95640625 -7.57390625 9.6628125 -8.3203125 10.390625 C-8.87460938 10.92171875 -9.42890625 11.4528125 -10 12 C-10.99 11.34 -11.98 10.68 -13 10 C-12.54109375 9.61328125 -12.0821875 9.2265625 -11.609375 8.828125 C-8.86691066 6.5004872 -6.19909373 4.20447464 -3.6875 1.625 C-2 0 -2 0 0 0 Z " fill="#CF6B02" transform="translate(201,91)"/>
<path d="M0 0 C1.12894876 0.93274109 2.25300876 1.87140122 3.375 2.8125 C4.00148437 3.33457031 4.62796875 3.85664063 5.2734375 4.39453125 C7 6 7 6 9 9 C6.03 8.505 6.03 8.505 3 8 C3 7.34 3 6.68 3 6 C2.34 6 1.68 6 1 6 C1 5.34 1 4.68 1 4 C0.34 4 -0.32 4 -1 4 C-0.67 2.68 -0.34 1.36 0 0 Z " fill="#CA6200" transform="translate(202,23)"/>
<path d="M0 0 C0.99 0.33 1.98 0.66 3 1 C3.20488353 13.90766208 3.20488353 13.90766208 2 19 C1.34 19.33 0.68 19.66 0 20 C0 13.4 0 6.8 0 0 Z " fill="#FE9100" transform="translate(1,7)"/>
<path d="M0 0 C0.33 0 0.66 0 1 0 C1 1.98 1 3.96 1 6 C-4.28 5.67 -9.56 5.34 -15 5 C-13 3 -13 3 -10.46875 2.91015625 C-8.48944835 3.01172568 -6.51027829 3.11589288 -4.53125 3.22265625 C-3.6959375 3.14917969 -2.860625 3.07570313 -2 3 C-1.34 2.01 -0.68 1.02 0 0 Z " fill="#FE8000" transform="translate(102,19)"/>
<path d="M0 0 C-0.34879632 3.25543229 -1.02133261 4.01873107 -3.5625 6.25 C-4.366875 6.8275 -5.17125 7.405 -6 8 C-6.33 6.68 -6.66 5.36 -7 4 C-2.25 0 -2.25 0 0 0 Z " fill="#B75300" transform="translate(212,79)"/>
<path d="M0 0 C1.22589844 0.15275391 1.22589844 0.15275391 2.4765625 0.30859375 C3.41628906 0.43427734 3.41628906 0.43427734 4.375 0.5625 C4.045 1.2225 3.715 1.8825 3.375 2.5625 C0.075 2.5625 -3.225 2.5625 -6.625 2.5625 C-6.625 1.9025 -6.625 1.2425 -6.625 0.5625 C-4.10446405 -0.69776798 -2.7707902 -0.35624445 0 0 Z " fill="#FE8300" transform="translate(161.625,111.4375)"/>
<path d="M0 0 C1.98 1.65 3.96 3.3 6 5 C4.1875 5.625 4.1875 5.625 2 6 C1.01 5.34 0.02 4.68 -1 4 C-0.67 2.68 -0.34 1.36 0 0 Z " fill="#BE5700" transform="translate(196,17)"/>
<path d="M0 0 C3.3 0.33 6.6 0.66 10 1 C10 1.66 10 2.32 10 3 C7.8125 3.75 7.8125 3.75 5 4 C2.1875 2.0625 2.1875 2.0625 0 0 Z " fill="#FF9000" transform="translate(103,16)"/>
<path d="M0 0 C0.99 0.33 1.98 0.66 3 1 C3.33 1.99 3.66 2.98 4 4 C1.69 4 -0.62 4 -3 4 C-2.67 3.01 -2.34 2.02 -2 1 C-1.34 0.67 -0.68 0.34 0 0 Z " fill="#FE8100" transform="translate(134,48)"/>
<path d="M0 0 C0.33 0 0.66 0 1 0 C1.36237263 1.62318979 1.71465157 3.2486358 2.0625 4.875 C2.25972656 5.77992187 2.45695312 6.68484375 2.66015625 7.6171875 C3 10 3 10 2 12 C1.34 12 0.68 12 0 12 C0 8.04 0 4.08 0 0 Z " fill="#FE8200" transform="translate(115,21)"/>
<path d="M0 0 C0.33 0 0.66 0 1 0 C1 1.65 1 3.3 1 5 C2.98 5.495 2.98 5.495 5 6 C5 6.66 5 7.32 5 8 C3.35 8 1.7 8 0 8 C0 5.36 0 2.72 0 0 Z " fill="#FE9500" transform="translate(115,106)"/>
<path d="M0 0 C0.99 0.33 1.98 0.66 3 1 C4.66621616 1.03874921 6.33394172 1.0450286 8 1 C8 1.66 8 2.32 8 3 C5.03 3 2.06 3 -1 3 C-0.67 2.01 -0.34 1.02 0 0 Z " fill="#FAA000" transform="translate(2,111)"/>
<path d="M0 0 C2.475 0.495 2.475 0.495 5 1 C5.33 2.65 5.66 4.3 6 6 C3.97945196 4.35830472 1.97956942 2.69088222 0 1 C0 0.67 0 0.34 0 0 Z " fill="#B36900" transform="translate(184,41)"/>
</svg>
